# xmcd
#
# Track frame offsets: 
#        150
#        22800
#        41365
#        66855
#        79223
#        101168
#        116728
#        136355
#        154613
#        174488
#        199105
#        216150
#
# Disc length: 3203 seconds
#
# Revision: 0
# Processed by: cddbd v1.5.2PL0 Copyright (c) Steve Scherf et al.
# Submitted via: ExactAudioCopy v0.95a3
#
DISCID=a00c810c
DTITLE=Delgado Brothers - A Brother's Dream
DYEAR=2003
DGENRE=Blues
TTITLE0=Mama's Crying
TTITLE1=Joy You Bring
TTITLE2=Lost in the Shuffle
TTITLE3=Betty Sue Boogaloo
TTITLE4=What's it Gonna Be
TTITLE5=Let's Go
TTITLE6=Picture of You
TTITLE7=Do You See Me
TTITLE8=Jennie
TTITLE9=In Step
TTITLE10=Leave Me Alone
TTITLE11=Talk to My Friend
EXTD=
EXTT0=
EXTT1=
EXTT2=
EXTT3=
EXTT4=
EXTT5=
EXTT6=
EXTT7=
EXTT8=
EXTT9=
EXTT10=
EXTT11=
PLAYORDER=
